# xmcd CD database file
#
# Track frame offsets:
#	150
#	13578
#	24532
#	37037
#	49506
#	59682
#	69620
#	82869
#	93941
#	103356
#	114778
#	125775
#	136364
#	148173
#
# Disc length: 2194 seconds
#
# Revision: 0
# Processed by: cddbd v1.5.1PL0 Copyright (c) Steve Scherf et al.
# Submitted via: CDex 1.51
#
DISCID=c508900e
DTITLE=Charlie Pride - 14 hits
DYEAR=1997
DGENRE=Country
TTITLE0=All I have to offer you is me
TTITLE1=Does my ring burn your finger
TTITLE2=Crystal chandelier 
TTITLE3=Kaw-liga
TTITLE4=Just between you and me
TTITLE5=Someone loves you honey
TTITLE6=Mountain of love
TTITLE7=Is anybody going to San Antone
TTITLE8=Kiss an angel goodmorning
TTITLE9=I'm just me
TTITLE10=Mississippi cotton picking delta town
TTITLE11=I know one
TTITLE12=She's just an old love turned memory
TTITLE13=Roll on Mississippi
EXTD=YEAR: 1997
EXTT0=
EXTT1=
EXTT2=
EXTT3=
EXTT4=
EXTT5=
EXTT6=
EXTT7=
EXTT8=
EXTT9=
EXTT10=
EXTT11=
EXTT12=
EXTT13=
PLAYORDER=
